<svg width="120" height="74" viewBox="0 0 120 74" fill="none" xmlns="http://www.w3.org/2000/svg">
<path d="M99.3333 59.6667H110.667C114.067 59.6667 116.333 57.4 116.333 54V37C116.333 31.9 112.367 27.3667 107.833 26.2333C97.6333 23.4 82.3333 20 82.3333 20C82.3333 20 74.9667 12.0667 69.8667 6.96667C67.0333 4.7 63.6333 3 59.6667 3H20C16.6 3 13.7667 5.26667 12.0667 8.1L4.13333 24.5333C3.38295 26.7219 3 29.0197 3 31.3333V54C3 57.4 5.26667 59.6667 8.66667 59.6667H20" stroke="#353535" stroke-width="6" stroke-linecap="round" stroke-linejoin="round"/>
<path d="M31.3333 71C37.5926 71 42.6667 65.9259 42.6667 59.6667C42.6667 53.4075 37.5926 48.3334 31.3333 48.3334C25.0741 48.3334 20 53.4075 20 59.6667C20 65.9259 25.0741 71 31.3333 71Z" stroke="#353535" stroke-width="6" stroke-linecap="round" stroke-linejoin="round"/>
<path d="M42.6665 59.6666H76.6665" stroke="#353535" stroke-width="6" stroke-linecap="round" stroke-linejoin="round"/>
<path d="M87.9998 71C94.2591 71 99.3332 65.9259 99.3332 59.6667C99.3332 53.4075 94.2591 48.3334 87.9998 48.3334C81.7406 48.3334 76.6665 53.4075 76.6665 59.6667C76.6665 65.9259 81.7406 71 87.9998 71Z" stroke="#353535" stroke-width="6" stroke-linecap="round" stroke-linejoin="round"/>
</svg>
