<svg width="78" height="78" viewBox="0 0 78 78" fill="none" xmlns="http://www.w3.org/2000/svg">
<path d="M21.6916 70.2898H14.215C11.2406 70.2898 8.388 69.1083 6.28479 67.005C4.18157 64.9018 3 62.0493 3 59.0749V55.3365H23.5608M55.3365 23.5608V10.4767C55.3365 8.99791 55.775 7.55238 56.5966 6.32285C57.4181 5.09332 58.5858 4.13502 59.952 3.56913C61.3182 3.00324 62.8215 2.85518 64.2718 3.14367C65.7221 3.43215 67.0543 4.14423 68.1 5.18986C69.1456 6.23549 69.8577 7.5677 70.1462 9.01803C70.4347 10.4684 70.2866 11.9717 69.7207 13.3378C69.1548 14.704 68.1965 15.8717 66.967 16.6933C65.7375 17.5148 64.2919 17.9533 62.8132 17.9533H55.3365" stroke="#353535" stroke-width="6" stroke-linecap="round" stroke-linejoin="round"/>
<path d="M62.8131 3H21.6915C18.7171 3 15.8646 4.18157 13.7614 6.28479C11.6581 8.388 10.4766 11.2406 10.4766 14.215V55.3365M25.4299 17.9533H40.3832M25.4299 32.9066H40.3832M60.6449 38.9253C62.1172 37.453 64.1141 36.6258 66.1963 36.6258C68.2785 36.6258 70.2754 37.453 71.7477 38.9253C73.22 40.3976 74.0472 42.3945 74.0472 44.4767C74.0472 46.5589 73.22 48.5558 71.7477 50.0281L47.8598 74.0282H36.6448V62.8132L60.6449 38.9253Z" stroke="#353535" stroke-width="6" stroke-linecap="round" stroke-linejoin="round"/>
</svg>
