<svg width="93" height="83" viewBox="0 0 93 83" fill="none" xmlns="http://www.w3.org/2000/svg">
<path d="M17.5011 79.6489H45.4676L70.3268 73.4341L85.4079 67.0039C86.8574 66.2986 87.9897 65.0755 88.5815 63.5761C89.1733 62.0767 89.1815 60.4099 88.6045 58.9047C88.0275 57.3996 86.9073 56.1654 85.4649 55.4458C84.0225 54.7262 82.3627 54.5734 80.8132 55.0177L54.7898 61.0046H53.2361M17.5011 79.6489V57.8972M17.5011 79.6489H3V57.8972H17.5011M53.2361 61.0046C55.2964 61.0046 57.2724 60.1861 58.7293 58.7293C60.1861 57.2724 61.0046 55.2964 61.0046 53.2361C61.0046 51.1758 60.1861 49.1998 58.7293 47.743C57.2724 46.2861 55.2964 45.4676 53.2361 45.4676H33.8129C32.5881 45.4649 31.3749 45.7035 30.2424 46.1699C29.1099 46.6363 28.0804 47.3212 27.2128 48.1856L17.5011 57.8972M53.2361 61.0046H44.4318M69.291 4.39626C71.5012 3.34914 73.9404 2.87807 76.3817 3.02687C78.8229 3.17566 81.1868 3.9395 83.2536 5.24731C85.3203 6.55512 87.0227 8.36442 88.2023 10.5069C89.382 12.6494 90.0006 15.0554 90.0006 17.5011C90.0006 19.9469 89.382 22.3529 88.2023 24.4954C87.0227 26.6379 85.3203 28.4472 83.2536 29.755C81.1868 31.0628 78.8229 31.8266 76.3817 31.9754C73.9404 32.1242 71.5012 31.6532 69.291 30.606M58.933 32.0023C57.0287 32.0023 55.143 31.6272 53.3836 30.8985C51.6243 30.1697 50.0257 29.1016 48.6791 27.755C47.3326 26.4085 46.2644 24.8099 45.5357 23.0505C44.8069 21.2911 44.4318 19.4055 44.4318 17.5011C44.4318 15.5968 44.8069 13.7112 45.5357 11.9518C46.2644 10.1924 47.3326 8.59385 48.6791 7.24729C50.0257 5.90073 51.6243 4.83259 53.3836 4.10384C55.143 3.37509 57.0287 3 58.933 3C62.7789 3 66.4674 4.5278 69.1869 7.24729C71.9063 9.96678 73.4341 13.6552 73.4341 17.5011C73.4341 21.3471 71.9063 25.0355 69.1869 27.755C66.4674 30.4745 62.7789 32.0023 58.933 32.0023Z" stroke="#353535" stroke-width="6" stroke-linecap="square"/>
</svg>
